<svg id="Group_69" data-name="Group 69" xmlns="http://www.w3.org/2000/svg" xmlns:xlink="http://www.w3.org/1999/xlink" width="63.255" height="78.538" viewBox="0 0 63.255 78.538">
  <defs>
    <clipPath id="clip-path">
      <rect id="Rectangle_16" data-name="Rectangle 16" width="63.255" height="78.538" fill="none"/>
    </clipPath>
  </defs>
  <g id="Group_14" data-name="Group 14" transform="translate(0 0)" clip-path="url(#clip-path)">
    <path id="Path_201" data-name="Path 201" d="M62.632,25.411a31.621,31.621,0,1,0-28,37.7L48.278,78.536l-1.613-19.09A31.632,31.632,0,0,0,62.632,25.411" transform="translate(0 0)" fill="#191919"/>
    <path id="Path_202" data-name="Path 202" d="M33.794,11.017a7.543,7.543,0,0,0-6.929-.262A8.725,8.725,0,0,0,22.4,15.914a8.712,8.712,0,0,0-6.07-3.108,7.533,7.533,0,0,0-6.325,2.842c-2.055,2.707-1.8,6.707.01,9.585a15.111,15.111,0,0,0,8.113,5.846,20.358,20.358,0,0,0,7.484,1.461l0,.01.023-.01h.023l0-.01a20.364,20.364,0,0,0,6.392-4.16,15.115,15.115,0,0,0,5.327-8.464c.6-3.346-.666-7.15-3.587-8.889" transform="translate(7.959 9.331)" fill="#936fd9"/>
  </g>
</svg>
